<?xml version="1.0" standalone="no"?>
<!DOCTYPE svg PUBLIC "-//W3C//DTD SVG 20010904//EN"
 "http://www.w3.org/TR/2001/REC-SVG-20010904/DTD/svg10.dtd">
<svg version="1.0" xmlns="http://www.w3.org/2000/svg"
 width="1500.000000pt" height="1500.000000pt" viewBox="0 0 1500.000000 1500.000000"
 preserveAspectRatio="xMidYMid meet">

<g transform="translate(0.000000,1500.000000) scale(0.100000,-0.100000)"
fill="#000000" stroke="none">
<path d="M7090 14989 c-875 -49 -1734 -249 -2535 -590 -208 -88 -628 -299
-825 -415 -415 -243 -815 -531 -1185 -854 -162 -142 -536 -515 -678 -677
-1035 -1184 -1668 -2634 -1826 -4183 -91 -886 -24 -1794 194 -2636 297 -1147
848 -2189 1632 -3087 150 -171 531 -549 703 -698 507 -438 998 -767 1580
-1057 896 -448 1767 -687 2815 -774 85 -7 316 -12 535 -12 567 0 962 38 1495
145 647 129 1242 335 1855 641 582 290 1073 619 1580 1057 173 149 553 527
703 698 1022 1170 1654 2601 1821 4128 33 299 40 450 40 825 0 375 -7 526 -40
825 -167 1526 -799 2958 -1821 4128 -150 171 -530 549 -703 698 -507 438 -998
766 -1580 1057 -500 250 -944 416 -1485 557 -704 183 -1538 265 -2275 224z
m-545 -2868 c188 -29 425 -90 425 -109 0 -10 -162 -776 -165 -780 -1 -1 -42
11 -91 27 -152 49 -267 65 -479 65 -174 0 -198 -2 -287 -26 -369 -100 -603
-386 -649 -791 -26 -240 24 -497 133 -681 58 -98 192 -229 291 -285 157 -88
315 -125 532 -125 184 1 234 8 239 37 49 256 132 427 280 580 211 216 506 349
871 393 241 29 599 4 850 -60 151 -38 345 -108 345 -125 1 -7 -182 -725 -186
-729 -1 -2 -25 8 -52 22 -320 162 -757 215 -952 116 -83 -43 -140 -133 -140
-224 0 -149 115 -233 530 -386 225 -83 381 -156 495 -231 106 -70 239 -200
295 -288 25 -38 47 -70 50 -70 3 -1 25 24 50 55 119 149 351 329 531 413 344
159 792 205 1164 119 630 -145 1017 -623 1117 -1378 22 -172 11 -597 -18 -692
-5 -17 -66 -18 -1106 -18 l-1101 0 6 -48 c3 -27 15 -75 26 -107 94 -267 368
-442 759 -484 275 -30 686 9 994 93 68 19 124 33 126 32 8 -8 139 -712 134
-718 -11 -11 -212 -75 -322 -103 -121 -31 -339 -68 -500 -86 -230 -26 -664
-17 -857 17 l-33 6 0 -646 0 -646 895 0 895 0 0 -710 0 -710 -3800 0 -3800 0
0 710 0 710 535 0 535 0 0 130 0 130 -535 0 -535 0 0 250 0 250 535 0 535 0 0
95 0 95 -405 0 -405 0 0 250 0 250 405 0 405 0 0 95 0 95 -305 0 -305 0 0 250
0 250 305 0 305 0 0 90 0 90 -205 0 -205 0 0 250 0 250 205 0 205 0 0 85 0 85
-105 0 -105 0 0 250 0 250 105 0 105 0 0 508 0 508 -57 28 c-167 81 -388 264
-507 419 -215 280 -328 624 -343 1037 -18 505 130 948 431 1292 299 342 755
552 1306 602 116 10 479 -3 605 -23z"/>
<path d="M6660 8644 c-296 -65 -748 -82 -1012 -38 l-38 7 0 -432 0 -431 95 0
95 0 0 -250 0 -250 -95 0 -95 0 0 -85 0 -85 195 0 195 0 0 -250 0 -250 -195 0
-195 0 0 -90 0 -90 295 0 295 0 0 -250 0 -250 -295 0 -295 0 0 -95 0 -95 395
0 395 0 0 -250 0 -250 -395 0 -395 0 0 -95 0 -95 485 0 485 0 0 -250 0 -250
-485 0 -485 0 0 -130 0 -130 820 0 820 0 0 1309 0 1310 -47 6 c-324 42 -563
105 -744 196 l-57 28 95 379 95 380 111 -53 c276 -131 655 -218 872 -200 101
8 194 29 245 55 97 49 148 146 137 262 -13 148 -114 223 -467 348 -284 100
-496 210 -651 336 -36 30 -68 53 -70 53 -2 -1 -51 -12 -109 -25z"/>
<path d="M10050 8364 c-262 -51 -458 -269 -525 -587 -8 -38 -15 -75 -15 -83 0
-12 90 -14 631 -14 l632 0 -7 81 c-20 227 -123 427 -267 519 -94 61 -170 82
-304 85 -66 2 -131 1 -145 -1z"/>
<path d="M8415 7057 c-154 -78 -341 -134 -536 -162 -57 -8 -110 -15 -116 -15
-10 0 -13 -269 -13 -1310 l0 -1310 800 0 800 0 0 728 0 728 -75 43 c-363 206
-611 547 -719 986 -20 82 -46 253 -46 303 0 22 -3 43 -7 45 -5 3 -44 -13 -88
-36z"/>
<path d="M6590 3550 l0 -370 85 0 85 0 0 370 0 370 -85 0 -85 0 0 -370z"/>
<path d="M6900 3550 l0 -370 85 0 85 0 0 370 0 370 -85 0 -85 0 0 -370z"/>
<path d="M7160 3845 l0 -75 135 0 135 0 0 -295 0 -295 85 0 85 0 0 295 0 295
140 0 140 0 0 75 0 75 -360 0 -360 0 0 -75z"/>
<path d="M7970 3550 l0 -370 85 0 85 0 0 207 0 208 120 -120 120 -120 118 118
c64 64 121 117 125 117 4 0 7 -92 7 -205 l0 -205 85 0 85 0 0 370 0 370 -34 0
c-31 0 -49 -16 -207 -180 l-173 -181 -181 181 c-146 146 -185 180 -208 180
l-27 0 0 -370z"/>
</g>
</svg>
